<svg xmlns="http://www.w3.org/2000/svg" viewBox="0 0 1200 860" width="1200" height="860" font-family="'Noto Sans KR', 'Apple SD Gothic Neo', 'Malgun Gothic', sans-serif">
  <defs>
    <!-- Background gradient -->
    <linearGradient id="bgGrad" x1="0" y1="0" x2="0" y2="1">
      <stop offset="0%" stop-color="#0c1428"/>
      <stop offset="100%" stop-color="#111d3a"/>
    </linearGradient>

    <!-- Layer band gradients -->
    <linearGradient id="layerAI" x1="0" y1="0" x2="1" y2="0">
      <stop offset="0%" stop-color="#7c3a00" stop-opacity="0.0"/>
      <stop offset="30%" stop-color="#7c3a00" stop-opacity="0.25"/>
      <stop offset="70%" stop-color="#7c3a00" stop-opacity="0.25"/>
      <stop offset="100%" stop-color="#7c3a00" stop-opacity="0.0"/>
    </linearGradient>
    <linearGradient id="layerGround" x1="0" y1="0" x2="1" y2="0">
      <stop offset="0%" stop-color="#1a4a47" stop-opacity="0.0"/>
      <stop offset="30%" stop-color="#1a4a47" stop-opacity="0.25"/>
      <stop offset="70%" stop-color="#1a4a47" stop-opacity="0.25"/>
      <stop offset="100%" stop-color="#1a4a47" stop-opacity="0.0"/>
    </linearGradient>
    <linearGradient id="layerRAG" x1="0" y1="0" x2="1" y2="0">
      <stop offset="0%" stop-color="#1a3555" stop-opacity="0.0"/>
      <stop offset="10%" stop-color="#1a3555" stop-opacity="0.22"/>
      <stop offset="90%" stop-color="#1a3555" stop-opacity="0.22"/>
      <stop offset="100%" stop-color="#1a3555" stop-opacity="0.0"/>
    </linearGradient>
    <linearGradient id="layerKG" x1="0" y1="0" x2="1" y2="0">
      <stop offset="0%" stop-color="#0f2e1e" stop-opacity="0.0"/>
      <stop offset="10%" stop-color="#0f2e1e" stop-opacity="0.28"/>
      <stop offset="90%" stop-color="#0f2e1e" stop-opacity="0.28"/>
      <stop offset="100%" stop-color="#0f2e1e" stop-opacity="0.0"/>
    </linearGradient>

    <!-- Card gradients -->
    <linearGradient id="cardAI" x1="0" y1="0" x2="0" y2="1">
      <stop offset="0%" stop-color="#c05621"/>
      <stop offset="100%" stop-color="#92400e"/>
    </linearGradient>
    <linearGradient id="cardGround" x1="0" y1="0" x2="0" y2="1">
      <stop offset="0%" stop-color="#2c7a7b"/>
      <stop offset="100%" stop-color="#1d5a5b"/>
    </linearGradient>
    <linearGradient id="cardRAG" x1="0" y1="0" x2="0" y2="1">
      <stop offset="0%" stop-color="#2b6cb0"/>
      <stop offset="100%" stop-color="#1a4a7e"/>
    </linearGradient>
    <linearGradient id="cardGraphRAG" x1="0" y1="0" x2="0" y2="1">
      <stop offset="0%" stop-color="#0987a0"/>
      <stop offset="100%" stop-color="#065666"/>
    </linearGradient>
    <linearGradient id="cardOntology" x1="0" y1="0" x2="0" y2="1">
      <stop offset="0%" stop-color="#553c9a"/>
      <stop offset="100%" stop-color="#3b2677"/>
    </linearGradient>
    <linearGradient id="cardKG" x1="0" y1="0" x2="0" y2="1">
      <stop offset="0%" stop-color="#276749"/>
      <stop offset="100%" stop-color="#1c4d35"/>
    </linearGradient>
    <linearGradient id="cardMeta" x1="0" y1="0" x2="0" y2="1">
      <stop offset="0%" stop-color="#c53030"/>
      <stop offset="100%" stop-color="#922020"/>
    </linearGradient>
    <linearGradient id="cardSource" x1="0" y1="0" x2="0" y2="1">
      <stop offset="0%" stop-color="#2d3748"/>
      <stop offset="100%" stop-color="#1a202c"/>
    </linearGradient>

    <!-- Arrow markers -->
    <marker id="arrowWhite" markerWidth="8" markerHeight="6" refX="7" refY="3" orient="auto">
      <polygon points="0 0, 8 3, 0 6" fill="rgba(255,255,255,0.5)"/>
    </marker>
    <marker id="arrowGold" markerWidth="8" markerHeight="6" refX="7" refY="3" orient="auto">
      <polygon points="0 0, 8 3, 0 6" fill="#f6ad55"/>
    </marker>
    <marker id="arrowCyan" markerWidth="8" markerHeight="6" refX="7" refY="3" orient="auto">
      <polygon points="0 0, 8 3, 0 6" fill="#4fd1c5"/>
    </marker>
    <marker id="arrowBlue" markerWidth="8" markerHeight="6" refX="7" refY="3" orient="auto">
      <polygon points="0 0, 8 3, 0 6" fill="#63b3ed"/>
    </marker>
    <marker id="arrowGreen" markerWidth="8" markerHeight="6" refX="7" refY="3" orient="auto">
      <polygon points="0 0, 8 3, 0 6" fill="#68d391"/>
    </marker>
    <marker id="arrowPurple" markerWidth="8" markerHeight="6" refX="7" refY="3" orient="auto">
      <polygon points="0 0, 8 3, 0 6" fill="#b794f4"/>
    </marker>
    <marker id="arrowRed" markerWidth="8" markerHeight="6" refX="7" refY="3" orient="auto">
      <polygon points="0 0, 8 3, 0 6" fill="#fc8181"/>
    </marker>

    <!-- Drop shadows -->
    <filter id="shadowCard" x="-10%" y="-10%" width="120%" height="140%">
      <feDropShadow dx="0" dy="4" stdDeviation="8" flood-color="#000" flood-opacity="0.4"/>
    </filter>
    <filter id="shadowGlow" x="-20%" y="-20%" width="140%" height="160%">
      <feDropShadow dx="0" dy="0" stdDeviation="12" flood-color="#f6ad55" flood-opacity="0.5"/>
    </filter>
    <filter id="shadowGlowCyan" x="-20%" y="-20%" width="140%" height="160%">
      <feDropShadow dx="0" dy="0" stdDeviation="10" flood-color="#4fd1c5" flood-opacity="0.4"/>
    </filter>
    <filter id="shadowGlowGreen" x="-20%" y="-20%" width="140%" height="160%">
      <feDropShadow dx="0" dy="0" stdDeviation="8" flood-color="#68d391" flood-opacity="0.35"/>
    </filter>
  </defs>

  <!-- ======= BACKGROUND ======= -->
  <rect width="1200" height="860" fill="url(#bgGrad)"/>

  <!-- Subtle grid lines -->
  <g opacity="0.04" stroke="#ffffff" stroke-width="0.5">
    <line x1="0" y1="100" x2="1200" y2="100"/>
    <line x1="0" y1="200" x2="1200" y2="200"/>
    <line x1="0" y1="300" x2="1200" y2="300"/>
    <line x1="0" y1="400" x2="1200" y2="400"/>
    <line x1="0" y1="500" x2="1200" y2="500"/>
    <line x1="0" y1="600" x2="1200" y2="600"/>
    <line x1="0" y1="700" x2="1200" y2="700"/>
    <line x1="0" y1="800" x2="1200" y2="800"/>
    <line x1="100" y1="0" x2="100" y2="860"/>
    <line x1="200" y1="0" x2="200" y2="860"/>
    <line x1="300" y1="0" x2="300" y2="860"/>
    <line x1="400" y1="0" x2="400" y2="860"/>
    <line x1="500" y1="0" x2="500" y2="860"/>
    <line x1="600" y1="0" x2="600" y2="860"/>
    <line x1="700" y1="0" x2="700" y2="860"/>
    <line x1="800" y1="0" x2="800" y2="860"/>
    <line x1="900" y1="0" x2="900" y2="860"/>
    <line x1="1000" y1="0" x2="1000" y2="860"/>
    <line x1="1100" y1="0" x2="1100" y2="860"/>
  </g>

  <!-- ======= TITLE ======= -->
  <text x="600" y="42" text-anchor="middle" font-size="22" font-weight="700" fill="#e2e8f0" letter-spacing="1">지식그래프 기반 그라운딩 아키텍처</text>
  <text x="600" y="64" text-anchor="middle" font-size="13" fill="#718096" letter-spacing="0.5">Knowledge Graph–Grounded Generation Pipeline</text>
  <line x1="200" y1="75" x2="1000" y2="75" stroke="#2d3748" stroke-width="1"/>

  <!-- ======= LAYER BANDS ======= -->
  <!-- Layer 5: Source -->
  <rect x="60" y="758" width="1080" height="72" rx="8" fill="url(#layerKG)" opacity="0.6"/>
  <!-- Layer 4: KG Foundation -->
  <rect x="60" y="598" width="1080" height="150" rx="8" fill="url(#layerKG)"/>
  <!-- Layer 3: RAG/GraphRAG -->
  <rect x="60" y="438" width="1080" height="150" rx="8" fill="url(#layerRAG)"/>
  <!-- Layer 2: Grounding -->
  <rect x="200" y="298" width="800" height="130" rx="8" fill="url(#layerGround)"/>
  <!-- Layer 1: AI Answer -->
  <rect x="320" y="105" width="560" height="115" rx="8" fill="url(#layerAI)"/>

  <!-- Layer labels (right edge) -->
  <text x="1158" y="302" text-anchor="end" font-size="10" fill="#4a5568" font-weight="500" letter-spacing="1">LAYER 1</text>
  <text x="1158" y="370" text-anchor="end" font-size="10" fill="#4a5568" font-weight="500" letter-spacing="1">LAYER 2</text>
  <text x="1158" y="510" text-anchor="end" font-size="10" fill="#4a5568" font-weight="500" letter-spacing="1">LAYER 3</text>
  <text x="1158" y="670" text-anchor="end" font-size="10" fill="#4a5568" font-weight="500" letter-spacing="1">LAYER 4</text>
  <text x="1158" y="800" text-anchor="end" font-size="10" fill="#4a5568" font-weight="500" letter-spacing="1">LAYER 5</text>

  <!-- ======= LAYER 1: AI ANSWER ======= -->
  <!-- Card -->
  <rect x="390" y="112" width="420" height="100" rx="14" fill="url(#cardAI)" filter="url(#shadowGlow)" stroke="#f6ad55" stroke-width="1.5" stroke-opacity="0.6"/>
  <!-- Icon: star/sparkle shape -->
  <g transform="translate(420, 152)">
    <polygon points="0,-14 3.5,-3.5 14,0 3.5,3.5 0,14 -3.5,3.5 -14,0 -3.5,-3.5" fill="#fbd38d" opacity="0.9"/>
    <polygon points="0,-8 2,-2 8,0 2,2 0,8 -2,2 -8,0 -2,-2" fill="#fefcbf"/>
  </g>
  <text x="600" y="148" text-anchor="middle" font-size="19" font-weight="700" fill="#fef3c7">AI 답변 생성</text>
  <text x="600" y="170" text-anchor="middle" font-size="13" fill="#fde68a">Grounded Generation</text>
  <text x="600" y="192" text-anchor="middle" font-size="11.5" fill="#fbbf24" opacity="0.85">환각(Hallucination) 없는 신뢰 답변</text>

  <!-- ======= LAYER 2: GROUNDING ======= -->
  <!-- Card -->
  <rect x="380" y="305" width="440" height="110" rx="14" fill="url(#cardGround)" filter="url(#shadowGlowCyan)" stroke="#4fd1c5" stroke-width="1.5" stroke-opacity="0.6"/>
  <!-- Icon: shield/anchor -->
  <g transform="translate(414, 352)">
    <path d="M0,-16 L12,-8 L12,4 Q12,14 0,18 Q-12,14 -12,4 L-12,-8 Z" fill="none" stroke="#81e6d9" stroke-width="2"/>
    <path d="M0,-8 L0,10 M-6,2 L6,2" stroke="#81e6d9" stroke-width="2"/>
  </g>
  <text x="600" y="337" text-anchor="middle" font-size="18" font-weight="700" fill="#e6fffa">그라운딩 (Grounding)</text>
  <text x="600" y="358" text-anchor="middle" font-size="12.5" fill="#81e6d9">컨텍스트 통합 및 신뢰도 검증</text>
  <text x="600" y="378" text-anchor="middle" font-size="11" fill="#4fd1c5" opacity="0.8">RAG 문서 컨텍스트 + GraphRAG 추론 컨텍스트 → LLM 프롬프트</text>
  <text x="600" y="397" text-anchor="middle" font-size="11" fill="#4fd1c5" opacity="0.8">사실 근거 기반 생성 · 출처 추적 가능</text>

  <!-- ======= LAYER 3: RAG + GraphRAG ======= -->

  <!-- RAG Card -->
  <rect x="130" y="448" width="380" height="120" rx="14" fill="url(#cardRAG)" filter="url(#shadowCard)" stroke="#63b3ed" stroke-width="1.5" stroke-opacity="0.6"/>
  <!-- Icon: document search -->
  <g transform="translate(162, 495)">
    <rect x="-10" y="-16" width="14" height="18" rx="2" fill="none" stroke="#90cdf4" stroke-width="1.8"/>
    <line x1="-8" y1="-10" x2="1" y2="-10" stroke="#90cdf4" stroke-width="1.2"/>
    <line x1="-8" y1="-5" x2="1" y2="-5" stroke="#90cdf4" stroke-width="1.2"/>
    <line x1="-8" y1="0" x2="-2" y2="0" stroke="#90cdf4" stroke-width="1.2"/>
    <circle cx="6" cy="5" r="5" fill="none" stroke="#90cdf4" stroke-width="1.8"/>
    <line x1="9.5" y1="8.5" x2="13" y2="12" stroke="#90cdf4" stroke-width="2" stroke-linecap="round"/>
  </g>
  <text x="320" y="477" text-anchor="middle" font-size="17" font-weight="700" fill="#ebf8ff">RAG</text>
  <text x="320" y="497" text-anchor="middle" font-size="12" fill="#90cdf4">Retrieval-Augmented Generation</text>
  <text x="320" y="516" text-anchor="middle" font-size="11" fill="#63b3ed" opacity="0.85">문서 청크 벡터 임베딩 · 유사도 검색</text>
  <text x="320" y="533" text-anchor="middle" font-size="11" fill="#63b3ed" opacity="0.85">BM25 + Dense Retrieval 하이브리드</text>
  <text x="320" y="553" text-anchor="middle" font-size="10.5" fill="#4299e1" opacity="0.75">입력: 질의(Query) → 출력: 관련 문서 청크</text>

  <!-- GraphRAG Card -->
  <rect x="690" y="448" width="380" height="120" rx="14" fill="url(#cardGraphRAG)" filter="url(#shadowCard)" stroke="#76e4f7" stroke-width="1.5" stroke-opacity="0.6"/>
  <!-- Icon: graph nodes -->
  <g transform="translate(722, 495)">
    <circle cx="0" cy="-12" r="5" fill="none" stroke="#9decf9" stroke-width="1.8"/>
    <circle cx="-11" cy="6" r="5" fill="none" stroke="#9decf9" stroke-width="1.8"/>
    <circle cx="11" cy="6" r="5" fill="none" stroke="#9decf9" stroke-width="1.8"/>
    <line x1="-2.5" y1="-7.5" x2="-8.5" y2="1.5" stroke="#9decf9" stroke-width="1.5"/>
    <line x1="2.5" y1="-7.5" x2="8.5" y2="1.5" stroke="#9decf9" stroke-width="1.5"/>
    <line x1="-6" y1="6" x2="6" y2="6" stroke="#9decf9" stroke-width="1.5"/>
  </g>
  <text x="880" y="477" text-anchor="middle" font-size="17" font-weight="700" fill="#e0f7fa">GraphRAG</text>
  <text x="880" y="497" text-anchor="middle" font-size="12" fill="#9decf9">Graph-based Retrieval &amp; Reasoning</text>
  <text x="880" y="516" text-anchor="middle" font-size="11" fill="#76e4f7" opacity="0.85">KG 엔티티 · 관계 그래프 순회</text>
  <text x="880" y="533" text-anchor="middle" font-size="11" fill="#76e4f7" opacity="0.85">다단계 추론 · 서브그래프 추출</text>
  <text x="880" y="553" text-anchor="middle" font-size="10.5" fill="#0bc5ea" opacity="0.75">입력: 질의(Query) → 출력: 추론 경로 + 사실</text>

  <!-- ======= LAYER 4: KG FOUNDATION ======= -->

  <!-- Ontology Card -->
  <rect x="100" y="608" width="280" height="125" rx="14" fill="url(#cardOntology)" filter="url(#shadowCard)" stroke="#b794f4" stroke-width="1.5" stroke-opacity="0.6"/>
  <!-- Icon: tree/hierarchy -->
  <g transform="translate(128, 655)">
    <rect x="-8" y="-16" width="16" height="10" rx="2" fill="none" stroke="#d6bcfa" stroke-width="1.8"/>
    <line x1="0" y1="-6" x2="0" y2="2" stroke="#d6bcfa" stroke-width="1.5"/>
    <line x1="-10" y1="2" x2="10" y2="2" stroke="#d6bcfa" stroke-width="1.5"/>
    <rect x="-18" y="2" width="14" height="9" rx="2" fill="none" stroke="#d6bcfa" stroke-width="1.5"/>
    <rect x="4" y="2" width="14" height="9" rx="2" fill="none" stroke="#d6bcfa" stroke-width="1.5"/>
  </g>
  <text x="240" y="635" text-anchor="middle" font-size="16" font-weight="700" fill="#faf5ff">온톨로지</text>
  <text x="240" y="653" text-anchor="middle" font-size="11.5" fill="#d6bcfa">Ontology</text>
  <text x="240" y="673" text-anchor="middle" font-size="10.5" fill="#b794f4" opacity="0.9">개념 분류 · 관계 공리 정의</text>
  <text x="240" y="690" text-anchor="middle" font-size="10.5" fill="#b794f4" opacity="0.9">도메인 스키마 · SHACL 제약</text>
  <text x="240" y="707" text-anchor="middle" font-size="10" fill="#9f7aea" opacity="0.75">OWL/RDFS 기반 의미 체계</text>
  <text x="240" y="722" text-anchor="middle" font-size="10" fill="#9f7aea" opacity="0.75">KG 구조의 청사진 역할</text>

  <!-- KG Card (center, larger) -->
  <rect x="440" y="600" width="320" height="140" rx="14" fill="url(#cardKG)" filter="url(#shadowGlowGreen)" stroke="#68d391" stroke-width="2" stroke-opacity="0.7"/>
  <!-- Icon: database/graph -->
  <g transform="translate(470, 655)">
    <ellipse cx="0" cy="-18" rx="13" ry="5" fill="none" stroke="#9ae6b4" stroke-width="1.8"/>
    <line x1="-13" y1="-18" x2="-13" y2="0" stroke="#9ae6b4" stroke-width="1.8"/>
    <line x1="13" y1="-18" x2="13" y2="0" stroke="#9ae6b4" stroke-width="1.8"/>
    <ellipse cx="0" cy="0" rx="13" ry="5" fill="none" stroke="#9ae6b4" stroke-width="1.8"/>
    <ellipse cx="0" cy="-9" rx="13" ry="5" fill="none" stroke="#9ae6b4" stroke-width="1.2" stroke-dasharray="3,2"/>
  </g>
  <text x="600" y="627" text-anchor="middle" font-size="16" font-weight="700" fill="#f0fff4">지식그래프</text>
  <text x="600" y="646" text-anchor="middle" font-size="12" fill="#9ae6b4">Knowledge Graph (KG)</text>
  <text x="600" y="666" text-anchor="middle" font-size="11" fill="#68d391" opacity="0.9">엔티티 · 관계 · 속성 저장</text>
  <text x="600" y="683" text-anchor="middle" font-size="11" fill="#68d391" opacity="0.9">Neo4j 그래프 데이터베이스</text>
  <text x="600" y="700" text-anchor="middle" font-size="10.5" fill="#48bb78" opacity="0.75">구조적 지식 표현 · 다중 홉 추론</text>
  <text x="600" y="717" text-anchor="middle" font-size="10.5" fill="#48bb78" opacity="0.75">메타데이터 연계 · 온톨로지 준수</text>
  <text x="600" y="730" text-anchor="middle" font-size="10" fill="#38a169" opacity="0.7">W3C PROV-O 기반 데이터 계보 추적</text>

  <!-- Metadata Card -->
  <rect x="820" y="608" width="280" height="125" rx="14" fill="url(#cardMeta)" filter="url(#shadowCard)" stroke="#fc8181" stroke-width="1.5" stroke-opacity="0.6"/>
  <!-- Icon: tag/label -->
  <g transform="translate(848, 655)">
    <path d="M-14,-12 L4,-12 L14,-2 L14,8 L-14,8 Z" fill="none" stroke="#feb2b2" stroke-width="1.8"/>
    <circle cx="-7" cy="-5" r="3" fill="none" stroke="#feb2b2" stroke-width="1.5"/>
    <line x1="2" y1="0" x2="10" y2="0" stroke="#feb2b2" stroke-width="1.5"/>
    <line x1="-2" y1="4" x2="10" y2="4" stroke="#feb2b2" stroke-width="1.2"/>
  </g>
  <text x="960" y="635" text-anchor="middle" font-size="16" font-weight="700" fill="#fff5f5">메타데이터</text>
  <text x="960" y="653" text-anchor="middle" font-size="11.5" fill="#feb2b2">Metadata</text>
  <text x="960" y="673" text-anchor="middle" font-size="10.5" fill="#fc8181" opacity="0.9">출처 · 시간 · 분류 · 신뢰도</text>
  <text x="960" y="690" text-anchor="middle" font-size="10.5" fill="#fc8181" opacity="0.9">데이터 품질 · 버전 관리</text>
  <text x="960" y="707" text-anchor="middle" font-size="10" fill="#f56565" opacity="0.75">Dublin Core / Schema.org 표준</text>
  <text x="960" y="722" text-anchor="middle" font-size="10" fill="#f56565" opacity="0.75">KG 노드/엣지 속성으로 태깅</text>

  <!-- ======= LAYER 5: SOURCE DATA ======= -->
  <!-- Source cards -->
  <rect x="130" y="768" width="200" height="50" rx="10" fill="url(#cardSource)" stroke="#4a5568" stroke-width="1" stroke-opacity="0.7"/>
  <text x="230" y="789" text-anchor="middle" font-size="12" font-weight="600" fill="#cbd5e0">문서 · 논문</text>
  <text x="230" y="806" text-anchor="middle" font-size="10" fill="#718096">PDF / HWP / DOCX</text>

  <rect x="370" y="768" width="180" height="50" rx="10" fill="url(#cardSource)" stroke="#4a5568" stroke-width="1" stroke-opacity="0.7"/>
  <text x="460" y="789" text-anchor="middle" font-size="12" font-weight="600" fill="#cbd5e0">데이터베이스</text>
  <text x="460" y="806" text-anchor="middle" font-size="10" fill="#718096">SQL / NoSQL</text>

  <rect x="590" y="768" width="180" height="50" rx="10" fill="url(#cardSource)" stroke="#4a5568" stroke-width="1" stroke-opacity="0.7"/>
  <text x="680" y="789" text-anchor="middle" font-size="12" font-weight="600" fill="#cbd5e0">센서 · 실시간</text>
  <text x="680" y="806" text-anchor="middle" font-size="10" fill="#718096">AIS / 기상 / IoT</text>

  <rect x="810" y="768" width="200" height="50" rx="10" fill="url(#cardSource)" stroke="#4a5568" stroke-width="1" stroke-opacity="0.7"/>
  <text x="910" y="789" text-anchor="middle" font-size="12" font-weight="600" fill="#cbd5e0">웹 · 크롤링</text>
  <text x="910" y="806" text-anchor="middle" font-size="10" fill="#718096">IMO / Port / S-100</text>

  <!-- Layer 5 header -->
  <text x="600" y="757" text-anchor="middle" font-size="11" fill="#4a5568" font-weight="500" letter-spacing="1">원천 데이터 (Raw Data Sources)</text>

  <!-- ======= CONNECTION LINES ======= -->

  <!-- 1. Source data → KG (center upward) -->
  <path d="M 600 766 L 600 742" stroke="#68d391" stroke-width="2" stroke-opacity="0.6" fill="none" marker-end="url(#arrowGreen)" stroke-dasharray="5,3"/>
  <rect x="558" y="745" width="84" height="16" rx="4" fill="#0c1428" fill-opacity="0.7"/>
  <text x="600" y="756" text-anchor="middle" font-size="9.5" fill="#68d391">ELT 적재</text>

  <!-- 2. Source → Metadata extraction (right) -->
  <path d="M 910 766 L 960 735" stroke="#fc8181" stroke-width="1.8" stroke-opacity="0.6" fill="none" marker-end="url(#arrowRed)" stroke-dasharray="5,3"/>
  <rect x="898" y="745" width="56" height="16" rx="4" fill="#0c1428" fill-opacity="0.7"/>
  <text x="926" y="756" text-anchor="middle" font-size="9.5" fill="#fc8181">메타 추출</text>

  <!-- 3. Source docs → RAG (left) -->
  <path d="M 230 766 L 280 570" stroke="#63b3ed" stroke-width="1.8" stroke-opacity="0.6" fill="none" marker-end="url(#arrowBlue)" stroke-dasharray="5,3"/>
  <rect x="213" y="695" width="60" height="16" rx="4" fill="#0c1428" fill-opacity="0.7"/>
  <text x="243" y="706" text-anchor="middle" font-size="9.5" fill="#63b3ed">벡터 임베딩</text>

  <!-- 4. Ontology → KG (define schema) -->
  <path d="M 380 660 L 438 660" stroke="#b794f4" stroke-width="2" stroke-opacity="0.7" fill="none" marker-end="url(#arrowPurple)"/>
  <rect x="380" y="648" width="72" height="16" rx="4" fill="#0c1428" fill-opacity="0.8"/>
  <text x="416" y="659" text-anchor="middle" font-size="9.5" fill="#b794f4">스키마 정의</text>

  <!-- 5. Metadata → KG (tag) -->
  <path d="M 820 660 L 762 660" stroke="#fc8181" stroke-width="2" stroke-opacity="0.7" fill="none" marker-end="url(#arrowRed)"/>
  <rect x="762" y="648" width="54" height="16" rx="4" fill="#0c1428" fill-opacity="0.8"/>
  <text x="789" y="659" text-anchor="middle" font-size="9.5" fill="#fc8181">속성 태깅</text>

  <!-- 6. KG → GraphRAG -->
  <path d="M 720 600 L 810 568" stroke="#76e4f7" stroke-width="2" stroke-opacity="0.7" fill="none" marker-end="url(#arrowCyan)"/>
  <rect x="722" y="574" width="66" height="16" rx="4" fill="#0c1428" fill-opacity="0.8"/>
  <text x="755" y="585" text-anchor="middle" font-size="9.5" fill="#76e4f7">그래프 순회</text>

  <!-- 7. RAG → Grounding -->
  <path d="M 380 447 L 510 416" stroke="#63b3ed" stroke-width="2" stroke-opacity="0.7" fill="none" marker-end="url(#arrowBlue)"/>
  <rect x="388" y="422" width="72" height="16" rx="4" fill="#0c1428" fill-opacity="0.8"/>
  <text x="424" y="433" text-anchor="middle" font-size="9.5" fill="#63b3ed">문서 컨텍스트</text>

  <!-- 8. GraphRAG → Grounding -->
  <path d="M 820 447 L 692 416" stroke="#76e4f7" stroke-width="2" stroke-opacity="0.7" fill="none" marker-end="url(#arrowCyan)"/>
  <rect x="728" y="422" width="72" height="16" rx="4" fill="#0c1428" fill-opacity="0.8"/>
  <text x="764" y="433" text-anchor="middle" font-size="9.5" fill="#76e4f7">추론 컨텍스트</text>

  <!-- 9. Grounding → AI Answer -->
  <path d="M 600 305 L 600 213" stroke="#f6ad55" stroke-width="2.5" stroke-opacity="0.8" fill="none" marker-end="url(#arrowGold)"/>
  <rect x="542" y="253" width="116" height="16" rx="4" fill="#0c1428" fill-opacity="0.85"/>
  <text x="600" y="264" text-anchor="middle" font-size="9.5" fill="#f6ad55">신뢰 컨텍스트 주입</text>

  <!-- ======= LEGEND ======= -->
  <rect x="60" y="840" width="1080" height="0.5" fill="#2d3748"/>

  <!-- Legend items -->
  <g transform="translate(80, 848)">
    <rect x="0" y="0" width="12" height="12" rx="2" fill="#68d391" opacity="0.8"/>
    <text x="16" y="10" font-size="10" fill="#718096">지식그래프 (KG)</text>
  </g>
  <g transform="translate(220, 848)">
    <rect x="0" y="0" width="12" height="12" rx="2" fill="#b794f4" opacity="0.8"/>
    <text x="16" y="10" font-size="10" fill="#718096">온톨로지</text>
  </g>
  <g transform="translate(330, 848)">
    <rect x="0" y="0" width="12" height="12" rx="2" fill="#fc8181" opacity="0.8"/>
    <text x="16" y="10" font-size="10" fill="#718096">메타데이터</text>
  </g>
  <g transform="translate(450, 848)">
    <rect x="0" y="0" width="12" height="12" rx="2" fill="#4299e1" opacity="0.8"/>
    <text x="16" y="10" font-size="10" fill="#718096">RAG</text>
  </g>
  <g transform="translate(530, 848)">
    <rect x="0" y="0" width="12" height="12" rx="2" fill="#0bc5ea" opacity="0.8"/>
    <text x="16" y="10" font-size="10" fill="#718096">GraphRAG</text>
  </g>
  <g transform="translate(660, 848)">
    <rect x="0" y="0" width="12" height="12" rx="2" fill="#4fd1c5" opacity="0.8"/>
    <text x="16" y="10" font-size="10" fill="#718096">그라운딩</text>
  </g>
  <g transform="translate(770, 848)">
    <rect x="0" y="0" width="12" height="12" rx="2" fill="#ed8936" opacity="0.8"/>
    <text x="16" y="10" font-size="10" fill="#718096">AI 답변</text>
  </g>
  <text x="1140" y="858" text-anchor="end" font-size="9.5" fill="#4a5568">IMSP / KRISO · 인사이트마이닝 2026</text>

</svg>
